<svg width="50" height="50" viewBox="0 0 50 50" fill="none" xmlns="http://www.w3.org/2000/svg">
<path d="M25.0008 6.81812C20.063 6.81812 19.4434 6.83971 17.504 6.92796C15.5685 7.0166 14.2473 7.32304 13.0913 7.77266C11.8955 8.23706 10.8811 8.85827 9.87055 9.86925C8.85922 10.8799 8.23803 11.8943 7.77213 13.0897C7.32139 14.2461 7.01458 15.5677 6.92746 17.5026C6.84072 19.442 6.81799 20.0621 6.81799 24.9999C6.81799 29.9378 6.83996 30.5556 6.92784 32.495C7.01685 34.4306 7.32328 35.7518 7.77251 36.9079C8.23727 38.1037 8.85846 39.1181 9.86942 40.1287C10.8796 41.1401 11.894 41.7628 13.089 42.2272C14.2458 42.6768 15.5673 42.9833 17.5025 43.0719C19.4419 43.1602 20.0612 43.1818 24.9985 43.1818C29.9366 43.1818 30.5544 43.1602 32.4937 43.0719C34.4293 42.9833 35.752 42.6768 36.9087 42.2272C38.1042 41.7628 39.117 41.1401 40.1272 40.1287C41.1385 39.1181 41.7597 38.1037 42.2256 36.9083C42.6726 35.7518 42.9794 34.4302 43.0703 32.4954C43.1574 30.556 43.1801 29.9378 43.1801 24.9999C43.1801 20.0621 43.1574 19.4424 43.0703 17.503C42.9794 15.5674 42.6726 14.2461 42.2256 13.0901C41.7597 11.8943 41.1385 10.8799 40.1272 9.86925C39.1159 8.85789 38.1045 8.23668 36.9076 7.77266C35.7486 7.32304 34.4266 7.0166 32.4911 6.92796C30.5517 6.83971 29.9343 6.81812 24.9951 6.81812H25.0008ZM23.3698 10.0946C23.8538 10.0939 24.394 10.0946 25.0008 10.0946C29.8552 10.0946 30.4305 10.1121 32.3475 10.1992C34.1202 10.2802 35.0823 10.5764 35.7232 10.8253C36.5716 11.1549 37.1765 11.5488 37.8125 12.1852C38.4489 12.8215 38.8428 13.4276 39.1731 14.2761C39.4219 14.9162 39.7185 15.8783 39.7992 17.6511C39.8863 19.5677 39.9052 20.1435 39.9052 24.9958C39.9052 29.848 39.8863 30.4238 39.7992 32.3405C39.7181 34.1132 39.4219 35.0753 39.1731 35.7155C38.8435 36.564 38.4489 37.1681 37.8125 37.8041C37.1762 38.4405 36.572 38.8344 35.7232 39.164C35.083 39.414 34.1202 39.7094 32.3475 39.7905C30.4309 39.8776 29.8552 39.8965 25.0008 39.8965C20.146 39.8965 19.5706 39.8776 17.654 39.7905C15.8814 39.7087 14.9193 39.4124 14.278 39.1636C13.4295 38.834 12.8235 38.4401 12.1871 37.8037C11.5508 37.1674 11.1569 36.5628 10.8266 35.714C10.5777 35.0738 10.2811 34.1117 10.2005 32.339C10.1133 30.4223 10.0959 29.8465 10.0959 24.9912C10.0959 20.1359 10.1133 19.5632 10.2005 17.6465C10.2815 15.8738 10.5777 14.9117 10.8266 14.2708C11.1561 13.4223 11.5508 12.8162 12.1871 12.1799C12.8235 11.5435 13.4295 11.1496 14.278 10.8193C14.9189 10.5693 15.8814 10.2738 17.654 10.1924C19.3313 10.1166 19.9812 10.0939 23.3698 10.0901V10.0946ZM34.7058 13.1136C33.5013 13.1136 32.524 14.0897 32.524 15.2946C32.524 16.4992 33.5013 17.4765 34.7058 17.4765C35.9103 17.4765 36.8875 16.4992 36.8875 15.2946C36.8875 14.0901 35.9103 13.1128 34.7058 13.1128V13.1136ZM25.0008 15.6628C19.8445 15.6628 15.6639 19.8435 15.6639 24.9999C15.6639 30.1564 19.8445 34.3352 25.0008 34.3352C30.1571 34.3352 34.3361 30.1564 34.3361 24.9999C34.3361 19.8435 30.1567 15.6628 25.0004 15.6628H25.0008ZM25.0008 18.9393C28.3476 18.9393 31.0612 21.6526 31.0612 24.9999C31.0612 28.3469 28.3476 31.0605 25.0008 31.0605C21.6535 31.0605 18.9404 28.3469 18.9404 24.9999C18.9404 21.6526 21.6535 18.9393 25.0008 18.9393V18.9393Z" fill="white"/>
</svg>
