<svg width="50" height="50" viewBox="0 0 50 50" fill="none" xmlns="http://www.w3.org/2000/svg">
<path d="M40.0501 40.2895H33.7811V30.4067C33.7811 28.05 33.7393 25.0163 30.5206 25.0163C27.2555 25.0163 26.7559 27.584 26.7559 30.2351V40.2889H20.4868V19.9657H26.5051V22.7431H26.5894C27.1917 21.7065 28.062 20.8537 29.1076 20.2756C30.1533 19.6975 31.3352 19.4157 32.5273 19.4602C38.8812 19.4602 40.0528 23.6674 40.0528 29.1406L40.0501 40.2895ZM13.4133 17.1877C12.6938 17.1878 11.9904 16.9732 11.392 16.5709C10.7937 16.1686 10.3273 15.5967 10.0519 14.9276C9.77639 14.2585 9.7042 13.5221 9.84445 12.8117C9.98469 12.1013 10.3311 11.4487 10.8398 10.9364C11.3485 10.4242 11.9966 10.0753 12.7023 9.93382C13.408 9.79239 14.1395 9.86478 14.8043 10.1418C15.4691 10.4189 16.0373 10.8882 16.4372 11.4904C16.837 12.0925 17.0505 12.8005 17.0507 13.5249C17.0507 14.0058 16.9567 14.482 16.774 14.9264C16.5912 15.3707 16.3234 15.7745 15.9856 16.1146C15.6478 16.4547 15.2468 16.7246 14.8055 16.9087C14.3641 17.0928 13.8911 17.1876 13.4133 17.1877V17.1877ZM16.5478 40.2895H10.2723V19.9657H16.5478V40.2895ZM43.1755 4.0029H7.12211C6.3038 3.99361 5.51526 4.31173 4.92983 4.88737C4.34441 5.463 4.00999 6.24906 4 7.0728V43.5166C4.00965 44.3407 4.34387 45.1273 4.92927 45.7035C5.51468 46.2798 6.30339 46.5985 7.12211 46.5898H43.1755C43.9958 46.6001 44.7868 46.2823 45.3745 45.7061C45.9622 45.1298 46.2986 44.3423 46.31 43.5166V7.07018C46.2983 6.2448 45.9616 5.45785 45.3739 4.88222C44.7861 4.3066 43.9954 3.98939 43.1755 4.00027" fill="white"/>
</svg>
