<svg width="50" height="50" viewBox="0 0 50 50" fill="none" xmlns="http://www.w3.org/2000/svg">
<path d="M17.2808 41.99C32.0173 41.99 40.0762 28.9144 40.0762 17.5758C40.0762 17.2044 40.0691 16.8346 40.0536 16.4666C41.6179 15.2554 42.9776 13.7439 44.05 12.0233C42.6145 12.7067 41.0697 13.1668 39.4491 13.3742C41.1032 12.3119 42.3731 10.6315 42.9722 8.62818C41.4242 9.61103 39.71 10.3254 37.8848 10.711C36.4228 9.04318 34.3414 8 32.0367 8C27.6123 8 24.0244 11.8428 24.0244 16.5795C24.0244 17.2529 24.0947 17.9078 24.2322 18.5361C17.5735 18.1772 11.669 14.7628 7.71742 9.57087C7.02936 10.8389 6.63261 12.3119 6.63261 13.8836C6.63261 16.8606 8.04704 19.4887 10.1979 21.0262C8.88346 20.9827 7.64869 20.5962 6.56945 19.953C6.56827 19.989 6.56827 20.0241 6.56827 20.0626C6.56827 24.2182 9.32991 27.6877 12.9958 28.474C12.3226 28.6705 11.6143 28.7759 10.8832 28.7759C10.3678 28.7759 9.86559 28.7216 9.37747 28.6212C10.3974 32.0306 13.3551 34.5116 16.8617 34.5809C14.1196 36.8828 10.6653 38.2538 6.91107 38.2538C6.26518 38.2538 5.62711 38.2145 5 38.1351C8.54577 40.5692 12.756 41.9895 17.2812 41.9895" fill="white"/>
</svg>
